<svg width="17" height="16" viewBox="0 0 17 16" fill="none" xmlns="http://www.w3.org/2000/svg">
<path d="M7.62249 0.605726C8.00171 -0.0882041 8.99829 -0.088204 9.37751 0.605726L10.4602 2.58693C10.6657 2.96292 11.0879 3.16622 11.5099 3.09244L13.734 2.70368C14.5129 2.56751 15.1343 3.34666 14.8282 4.07581L13.9543 6.15757C13.7884 6.55264 13.8927 7.00946 14.2135 7.29344L15.9041 8.78987C16.4963 9.314 16.2745 10.2856 15.5136 10.5009L13.3412 11.1156C12.9289 11.2323 12.6367 11.5986 12.6147 12.0265L12.4989 14.2813C12.4583 15.071 11.5604 15.5034 10.9176 15.0427L9.08254 13.7275C8.73429 13.4779 8.26571 13.4779 7.91746 13.7275L6.08236 15.0427C5.4396 15.5034 4.54172 15.071 4.50113 14.2813L4.38526 12.0265C4.36327 11.5986 4.07112 11.2323 3.65884 11.1156L1.48638 10.5009C0.725463 10.2856 0.503705 9.314 1.09585 8.78987L2.78646 7.29344C3.1073 7.00946 3.21156 6.55264 3.04571 6.15757L2.1718 4.07581C1.86571 3.34666 2.48706 2.56751 3.26604 2.70368L5.49007 3.09244C5.91214 3.16622 6.33431 2.96292 6.53978 2.58693L7.62249 0.605726Z" fill="#149BFC"/>
</svg>
